<?xml version="1.0"?>
<svg xmlns="http://www.w3.org/2000/svg" xmlns:xlink="http://www.w3.org/1999/xlink" version="1.1" id="Capa_1" x="0px" y="0px" width="512px" height="512px" viewBox="0 0 48.827 48.827" style="enable-background:new 0 0 48.827 48.827;" xml:space="preserve" class=""><g><g>
	<g>
		<g>
			<path d="M48.15,6.05l-4.368-4.362c-0.451-0.451-1.044-0.677-1.636-0.677c-0.593,0-1.186,0.225-1.636,0.676l-3.494,3.484     l7.64,7.626l3.494-3.483C49.053,8.412,49.053,6.949,48.15,6.05z" data-original="#000000" class="active-path" data-old_color="#F8F5F5" fill="#FFFFFF"/>
			<polygon points="14.336,27.81 21.976,35.437 43.021,14.431 35.381,6.804    " data-original="#000000" class="active-path" data-old_color="#F8F5F5" fill="#FFFFFF"/>
			<polygon points="12.687,29.441 11.056,38.694 20.327,37.067    " data-original="#000000" class="active-path" data-old_color="#F8F5F5" fill="#FFFFFF"/>
			<path d="M33.807,42.816H5.001V14.011H25.33l5.01-5H3.234C1.455,9.011,0,10.466,0,12.245v32.338c0,1.778,1.455,3.233,3.234,3.233     h32.339c1.777,0,3.232-1.455,3.232-3.233V21.462l-5,4.992L33.807,42.816L33.807,42.816z" data-original="#000000" class="active-path" data-old_color="#F8F5F5" fill="#FFFFFF"/>
		</g>
	</g>
</g></g> </svg>
