<svg height="512pt" viewBox="-32 0 512 512.00098" width="512pt" xmlns="http://www.w3.org/2000/svg"><path d="m275.378906 54.277344-7.738281-22.496094s-5.378906-16.660156-20.019531-21.671875c-7.289063-2.496094-12.667969-5.449219-16.410156-7.980469-4.199219-2.839844-9.628907-2.839844-13.828126 0-3.742187 2.53125-9.121093 5.484375-16.410156 7.980469-14.640625 5.011719-20.019531 21.671875-20.019531 21.671875-7.277344 21.152344-9.28125 24.226562-9.28125 39.085938 0 20.511718 6.84375 38.917968 17.699219 51.546874 25.425781-6.074218 44.410156-6.078124 69.851562 0 10.855469-12.628906 17.699219-31.035156 17.699219-51.546874.003906-5.722657-.539063-11.273438-1.542969-16.589844zm0 0" fill="#76ab29"/><path d="m103.476562 362.753906c-10.40625 3.589844-42.855468 17.1875-44.828124 47.765625-2.289063 35.488281 36.085937 149.992188 54.378906 32.324219 1-6.433594 4.714844-12.15625 10.242187-15.714844l15.800781-10.167968c-13.273437-14.632813-25.773437-32.519532-35.59375-54.207032zm0 0" fill="#76ab29"/><path d="m89.476562 211.859375c8.578126-29.53125 24.726563-49.980469 43.050782-64.128906-11.203125-7.109375-45.992188-25.886719-75.273438-6.472657-34.5 22.875-113.65625 137.878907 8.253906 71.660157 8.195313-4.449219 15.660157-3.921875 23.96875-1.058594zm0 0" fill="#76ab29"/><path d="m390.722656 141.257812c-29.59375-19.414062-64.757812-.636718-76.082031 6.472657 18.523437 14.148437 34.84375 34.597656 43.515625 64.128906 8.339844-2.847656 15.898438-3.414063 24.226562 1.058594 123.222657 66.21875 43.210938-48.785157 8.339844-71.660157zm0 0" fill="#76ab29"/><path d="m344.007812 362.753906c-9.929687 21.6875-22.5625 39.574219-35.976562 54.207032l15.964844 10.167968c5.589844 3.558594 9.34375 9.28125 10.355468 15.714844 18.488282 117.671875 57.277344 3.167969 54.964844-32.324219-1.996094-30.578125-34.792968-44.175781-45.308594-47.765625zm0 0" fill="#76ab29"/><path d="m207.964844 467.375c-.167969 12.867188-2.582032 29.414062-12.707032 38.222656-15.976562 13.898438 38.058594 6.734375 40.882813-36.96875-9.308594 2.175782-19.035156 1.761719-28.175781-1.253906zm0 0" fill="#76ab29"/><g fill="#6c9b1b"><path d="m193.820312 54.277344 7.738282-22.496094s5.378906-16.660156 20.019531-21.671875c5.332031-1.824219 9.628906-3.894531 13.023437-5.863281-1.25-.726563-2.382812-1.4375-3.390624-2.117188-4.195313-2.839844-9.628907-2.839844-13.828126 0-3.742187 2.53125-9.121093 5.484375-16.40625 7.980469-14.644531 5.011719-20.023437 21.671875-20.023437 21.671875-7.273437 21.152344-9.28125 24.226562-9.28125 39.085938 0 20.511718 6.847656 38.917968 17.699219 51.546874 6.300781-1.507812 12.203125-2.636718 17.910156-3.394531-13.488281-18.074219-17.601562-42.789062-13.460938-64.742187zm0 0"/><path d="m79.253906 410.519531c1.277344-19.824219 15.367188-32.503906 27.953125-39.957031-1.28125-2.546875-2.527343-5.148438-3.730469-7.808594-10.40625 3.589844-42.855468 17.1875-44.828124 47.765625-1.851563 28.695313 22.882812 109.042969 42.089843 76.550781-12.542969-16.953124-22.695312-57.789062-21.484375-76.550781zm0 0"/><path d="m88.832031 211.636719.644531.222656c.050782-.183594.113282-.355469.167969-.535156-.273437.101562-.542969.203125-.8125.3125zm0 0"/><path d="m77.859375 141.257812c6.183594-4.097656 12.613281-6.480468 19.015625-7.644531-12.601562-2.054687-26.648438-.953125-39.621094 7.644531-29.476562 19.546876-91.550781 106.347657-32.949218 89.894532-17.09375-12.101563 29.28125-73.800782 53.554687-89.894532zm0 0"/><path d="m347.011719 157.9375c-5.636719-5.550781-3.789063-15.066406 3.492187-18.164062 6.066406-2.578126 13.21875-4.953126 20.898438-6.179688-24.128906-4.285156-47.839844 8.539062-56.761719 14.136719 18.523437 14.152343 34.84375 34.597656 43.515625 64.128906 3.160156-1.078125 10.675781-4.089844 20.40625-.628906-6.800781-22.765625-18.15625-40.101563-31.550781-53.292969zm0 0"/><path d="m354.957031 442.84375c-1.800781-11.460938-10.042969-15.515625-16.363281-19.539062-5.152344-3.28125-6.28125-10.328126-2.402344-15.050782 8.984375-10.945312 17.425782-23.484375 24.695313-37.792968-6.835938-3.980469-13.214844-6.453126-16.882813-7.707032-9.925781 21.6875-22.558594 39.574219-35.976562 54.207032l15.96875 10.167968c5.589844 3.558594 9.34375 9.28125 10.355468 15.714844 8.683594 55.265625 21.84375 59.316406 33.125 44.390625-4.636718-7.65625-8.953124-21.707031-12.519531-44.390625zm0 0"/><path d="m228.507812 469.820312c-6.898437.5625-13.878906-.246093-20.542968-2.445312-.167969 12.867188-2.582032 29.417969-12.707032 38.222656-10.332031 8.988282 8.617188 9.164063 24.0625-3.65625 6.722657-8.585937 8.808594-21.332031 9.1875-32.121094zm0 0"/></g><path d="m193.101562 44.328125c0-6.933594-5.535156-12.558594-12.363281-12.558594s-12.363281 5.625-12.363281 12.558594c0 6.9375 5.535156 12.558594 12.363281 12.558594s12.363281-5.621094 12.363281-12.558594zm0 0" fill="#525468"/><path d="m280.21875 44.328125c0-6.933594-5.535156-12.558594-12.363281-12.558594s-12.359375 5.625-12.359375 12.558594c0 6.9375 5.53125 12.558594 12.359375 12.558594s12.363281-5.621094 12.363281-12.558594zm0 0" fill="#525468"/><path d="m224.296875 115.910156s-142.554687-1.414062-142.554687 145.398438c0 125.804687 76.757812 182.664062 117.628906 204.023437 15.617187 8.164063 34.238281 8.164063 49.855468 0 40.867188-21.359375 117.628907-78.21875 117.628907-204.023437 0-146.8125-142.558594-145.398438-142.558594-145.398438zm0 0" fill="#a0634a"/><path d="m219.976562 465.332031c-40.871093-21.355469-117.632812-78.21875-117.632812-204.023437 0-122.6875 99.535156-141.855469 132.257812-144.847656-6.4375-.585938-10.304687-.550782-10.304687-.550782s-142.554687-1.414062-142.554687 145.398438c0 125.804687 76.757812 182.664062 117.628906 204.023437 10.957031 5.726563 23.390625 7.417969 35.230468 5.109375-5.035156-.980468-9.96875-2.671875-14.625-5.109375zm0 0" fill="#915039"/><path d="m274.558594 265.679688-22.335938-38.6875c-1.152344-1.996094-3.28125-3.226563-5.585937-3.226563h-44.675781c-2.304688 0-4.433594 1.230469-5.585938 3.226563l-22.335938 38.6875c-1.152343 1.996093-1.152343 4.457031 0 6.449218l22.335938 38.691406c1.152344 1.996094 3.28125 3.222657 5.585938 3.222657h44.675781c2.304687 0 4.433593-1.230469 5.585937-3.222657l22.335938-38.691406c1.152344-1.992187 1.152344-4.453125 0-6.449218zm0 0" fill="#ba7861"/><path d="m274.558594 379.34375-22.335938-38.691406c-1.152344-1.992188-3.28125-3.222656-5.585937-3.222656h-44.675781c-2.304688 0-4.433594 1.230468-5.585938 3.222656l-22.335938 38.691406c-1.152343 1.996094-1.152343 4.453125 0 6.449219l22.335938 38.6875c1.152344 1.996093 3.28125 3.226562 5.585938 3.226562h44.675781c2.304687 0 4.433593-1.230469 5.585937-3.226562l22.335938-38.6875c1.152344-1.996094 1.152344-4.453125 0-6.449219zm0 0" fill="#ba7861"/><path d="m192.664062 119.753906-18.628906 32.261719c-1.152344 1.996094-1.152344 4.457031 0 6.453125l22.339844 38.6875c1.152344 1.996094 3.28125 3.226562 5.585938 3.226562h44.671874c2.304688 0 4.4375-1.230468 5.585938-3.226562l22.339844-38.6875c1.152344-1.996094 1.152344-4.457031 0-6.453125l-18.628906-32.261719c-23.210938-5.007812-39.96875-5.027344-63.265626 0zm0 0" fill="#ba7861"/><path d="m224.296875 115.910156c-7.023437 0-19.082031 1.136719-31.632813 3.84375l-4.207031 7.289063c18.5625-7.03125 35.722657-9.628907 46.132813-10.578125-2.929688-.269532-7.539063-.582032-10.292969-.554688zm0 0" fill="#a0634a"/><path d="m363.699219 303.8125-11.398438-19.742188c-1.152343-1.996093-3.28125-3.226562-5.585937-3.226562h-44.675782c-2.304687 0-4.433593 1.230469-5.585937 3.226562l-22.335937 38.6875c-1.152344 1.996094-1.152344 4.457032 0 6.453126l22.335937 38.6875c1.152344 1.996093 3.28125 3.226562 5.585937 3.226562h40.625c9.550782-19.105469 17.054688-41.398438 21.035157-67.3125zm0 0" fill="#ba7861"/><path d="m329.015625 394.507812h-26.976563c-2.304687 0-4.433593 1.226563-5.585937 3.222657l-22.335937 38.691406c-2.292969 3.972656.273437 6.921875 2.976562 11.605469 17.234375-12.527344 36.011719-29.933594 51.921875-53.519532zm0 0" fill="#ba7861"/><path d="m337.699219 167.183594h-35.660157c-2.304687 0-4.433593 1.226562-5.585937 3.222656l-22.335937 38.691406c-1.152344 1.996094-1.152344 4.453125 0 6.449219l22.335937 38.691406c1.152344 1.996094 3.285156 3.222657 5.585937 3.222657h44.675782c2.304687 0 4.433594-1.230469 5.585937-3.222657l12.523438-21.6875c-4.105469-27.953125-14.160157-49.210937-27.125-65.367187zm0 0" fill="#ba7861"/><path d="m153.109375 284.070312c-1.152344-1.996093-3.28125-3.226562-5.585937-3.226562h-44.675782c-2.304687 0-4.433594 1.230469-5.585937 3.226562l-12.167969 21.074219c4.03125 25.347657 11.449219 47.199219 20.835938 65.980469h41.59375c2.300781 0 4.433593-1.230469 5.585937-3.226562l22.335937-38.6875c1.152344-1.996094 1.152344-4.457032 0-6.453126zm0 0" fill="#ba7861"/><path d="m126.535156 371.125c-12.261718-24.535156-21.152344-54.320312-23.539062-90.28125-2.59375 0-4.628906 1.308594-5.734375 3.226562l-12.167969 21.074219c.980469 2.453125 2.25 26.953125 20.835938 65.980469zm0 0" fill="#a0634a"/><path d="m153.109375 397.730469c-1.152344-1.996094-3.28125-3.222657-5.585937-3.222657h-27.941407c16.117188 23.898438 35.179688 41.449219 52.601563 54.011719l3.261718-5.648437c1.152344-1.996094 1.152344-4.453125 0-6.449219zm0 0" fill="#ba7861"/><path d="m140.1875 394.507812h-20.605469c13.996094 20.75 31.753907 38.976563 52.601563 54.011719l3.261718-5.648437c1.152344-1.996094 1.152344-4.453125 0-6.449219l-2.125-3.679687c-11.453124-10.414063-22.886718-23.042969-33.132812-38.234376zm0 0" fill="#a0634a"/><path d="m153.109375 170.40625c-1.152344-1.996094-3.28125-3.222656-5.585937-3.222656h-36.625c-12.761719 15.898437-22.703126 36.734375-26.929688 64.03125l13.292969 23.019531c1.152343 1.996094 3.28125 3.226563 5.585937 3.226563h44.675782c2.304687 0 4.433593-1.230469 5.585937-3.226563l22.335937-38.6875c1.152344-1.996094 1.152344-4.457031 0-6.449219zm0 0" fill="#ba7861"/><path d="m97.261719 254.234375c1.074219 1.867187 3.007812 3.046875 5.132812 3.195313.710938-40.628907 12.527344-69.597657 29.09375-90.25h-20.589843c-14.769532 18.40625-23.257813 40.308593-26.929688 64.03125v.003906zm0 0" fill="#a0634a"/></svg>